<?xml version="1.0" encoding="UTF-8"?>
<svg id="Layer_2" xmlns="http://www.w3.org/2000/svg" viewBox="0 0 435.86 196.49">
  <defs>
    <style>
      .cls-1 {
        fill: #d32c20;
      }

      .cls-2 {
        fill: #fff;
      }

      .cls-3 {
        fill: #183e79;
      }

      .cls-4 {
        fill: #f4c51d;
      }

      .cls-5 {
        fill: #119144;
      }

      .cls-6 {
        fill: #ced1d2;
      }

      .cls-7 {
        fill: #138dc5;
      }
    </style>
  </defs>
  <g id="Layer_1-2" data-name="Layer_1">
    <g>
      <g>
        <g>
          <g>
            <path class="cls-2" d="M422.25,120.81h.14v7.37c0,.1-.08.2-.18.2h-1.11c-.09,0-.17-.09-.17-.2v-4.17l-2.15,2.45c-.07.09-.2.09-.28,0l-2.1-2.45v4.17c0,.1-.08.2-.18.2h-1.14c-.1,0-.18-.09-.18-.2v-7.37h.13l3.48,3.78c.08.08.21.08.28,0l3.48-3.78Z"/>
            <path class="cls-2" d="M413.45,121.04v1.06c0,.07-.06.13-.13.13h-1.93v6.01c0,.07-.05.14-.11.14h-1.25c-.07,0-.13-.07-.13-.14v-6.01h-1.99c-.07,0-.13-.06-.13-.13v-1.06c0-.07.06-.13.13-.13h5.41c.07,0,.13.06.13.13Z"/>
          </g>
          <g>
            <path class="cls-2" d="M405.04,151.88v7.88c0,.28-.22.49-.49.49h-27.42c-.28,0-.49-.22-.49-.49v-38.45c0-.29.22-.51.49-.51h26.61c.26,0,.49.22.49.51v7.87c0,.28-.23.51-.49.51h-16.58v6.49h13.74c.28,0,.49.22.49.49v7.41c0,.29-.22.51-.49.51h-13.74v6.79h17.38c.28,0,.49.22.49.49Z"/>
            <path class="cls-2" d="M370.21,121.32v23.68c0,10.62-7.24,15.83-17.07,15.83s-17.06-5.22-17.06-15.83v-23.68c0-.29.22-.51.49-.51h9.54c.28,0,.49.22.49.51v23.92c0,3.6,2.85,6.63,6.45,6.66,4.52.03,6.63-2.52,6.63-7.02v-23.57c0-.29.23-.51.51-.51h9.53c.29,0,.51.22.51.51Z"/>
            <path class="cls-2" d="M331.2,138.77v16.56c-3.64,3.01-8.39,5.46-17.12,5.46-11.57,0-21.18-8.36-21.18-20.25s9.61-20.19,20.95-20.19c6.43,0,11.58,2.24,15.02,6.09.18.2.16.49-.02.68l-6.16,6.24c-.21.21-.55.18-.74-.05-1.95-2.31-4.62-3.8-8.33-3.8-6.42,0-9.95,4.81-9.95,11.03s3.58,11.36,10.52,11.36c3.81,0,5.96-.75,7.64-1.56v-3.95h-7.32c-.26,0-.49-.22-.49-.49v-7.12c0-.28.23-.49.49-.49h16.19c.28,0,.49.22.49.49Z"/>
            <path class="cls-2" d="M294.58,159.55l-18.75-39.42c-.17-.41-.52-.41-.69,0l-18.81,39.42c-.16.33.08.71.45.71h9.18c.2,0,.38-.11.45-.3l1.85-4.46h13.71l1.95,4.46c.08.18.25.3.46.3h9.76c.37,0,.61-.38.45-.71ZM271.5,147.85l3.53-8.35,3.58,8.35h-7.11Z"/>
            <path class="cls-2" d="M253.21,151.88v7.88c0,.28-.22.49-.49.49h-27.42c-.28,0-.49-.22-.49-.49v-38.45c0-.29.22-.51.49-.51h26.61c.26,0,.49.22.49.51v7.87c0,.28-.23.51-.49.51h-16.58v6.49h13.74c.26,0,.49.22.49.49v7.41c0,.29-.23.51-.49.51h-13.74v6.79h17.38c.28,0,.49.22.49.49Z"/>
            <path class="cls-2" d="M219.93,151.88v7.88c0,.28-.22.49-.49.49h-26.26c-.28,0-.49-.22-.49-.49v-38.45c0-.29.22-.51.49-.51h9.54c.28,0,.49.22.49.51v30.07h16.22c.28,0,.49.22.49.49Z"/>
          </g>
        </g>
        <g>
          <path class="cls-2" d="M435.86,101.95c0,7.25-4.52,12.48-14.94,12.48-7.79,0-12.63-3.15-15.33-6.12-.18-.2-.16-.49.02-.69l6.07-6.08c.21-.21.54-.2.74.03,1.87,2.21,4.34,4.1,8.05,4.1,3.11,0,4.96-.93,4.96-3.14,0-1.69-1.28-2.49-3.87-3.37l-4.63-1.56c-5.72-1.92-9.78-5.4-9.78-11.89,0-7.78,6.42-11.78,13.42-11.78s10.75,2.29,13.12,4.87c.17.18.16.49-.01.68-1.28,1.29-5.77,5.85-5.84,5.85-1.6-1.61-3.65-2.7-6.69-2.7-2.55,0-3.83,1.16-3.83,2.72s.87,2.26,2.78,2.91l5.21,1.73c7.87,2.61,10.54,6.39,10.54,11.95Z"/>
          <path class="cls-2" d="M400.24,114.54l-24.7-20.36v19.17c0,.28-.22.51-.49.51h-8.9c-.26,0-.49-.23-.49-.51v-39.47c0-.36.17-.64.82-.11l24.7,20.42v-19.29c0-.26.22-.49.49-.49h8.9c.28,0,.49.23.49.49v39.54c0,.46-.17.63-.82.11Z"/>
          <path class="cls-2" d="M339.6,73.95c-11.34,0-21.12,8.28-21.12,20.18s9.78,20.26,21.12,20.26,21.12-8.36,21.12-20.26-9.78-20.18-21.12-20.18ZM339.6,105.21c-6.6,0-10.36-4.87-10.36-11.09s3.77-11.02,10.36-11.02,10.36,4.81,10.36,11.02-3.77,11.09-10.36,11.09Z"/>
          <path class="cls-2" d="M312.84,74.41c.26,0,.49.22.49.49v38.46c0,.28-.23.49-.49.49h-9.55c-.28,0-.49-.22-.49-.49v-38.46c0-.28.22-.49.49-.49h9.55Z"/>
          <path class="cls-2" d="M262.39,75.12c-.15-.33.08-.71.45-.71h34.49c.26,0,.49.22.49.49v7.88c0,.28-.23.49-.49.49h-9.92v30.08c0,.28-.23.49-.49.49h-9.55c-.28,0-.49-.22-.49-.49v-30.08h-10.31c-.18,0-.36-.1-.44-.28l-3.75-7.88Z"/>
          <path class="cls-2" d="M270.35,113.13l-18.75-39.43c-.18-.4-.53-.4-.7,0l-18.81,39.43c-.16.33.08.71.45.71h9.17c.21,0,.39-.11.46-.3l1.84-4.46h13.72l1.95,4.46c.08.18.25.3.46.3h9.77c.37,0,.6-.38.45-.71ZM247.25,101.43l3.54-8.35,3.58,8.35h-7.12Z"/>
          <path class="cls-2" d="M192.69,113.35v-39.47c0-.36.17-.64.8-.11l24.7,20.42v-19.27c0-.28.23-.49.51-.49h8.89c.28,0,.51.22.51.49v39.51c0,.46-.18.63-.82.11l-24.7-20.36v19.17c0,.28-.22.51-.49.51h-8.9c-.28,0-.49-.23-.49-.51Z"/>
        </g>
        <g>
          <path class="cls-2" d="M327.79,66.75l-18.49-38.87c-.17-.4-.52-.4-.69,0l-18.55,38.87c-.15.32.08.7.44.7h9.07c.2,0,.37-.13.45-.3l1.8-4.39h13.52l1.93,4.39c.08.18.25.3.45.3h9.63c.36,0,.6-.38.44-.7ZM305.03,55.22l3.48-8.24,3.53,8.24h-7.01Z"/>
          <path class="cls-2" d="M265.65,66.96V29.05c0-.26.22-.49.49-.49h29.77c.36,0,.59.38.44.7l-3.69,7.77c-.08.17-.25.29-.44.29h-16.2v7.89h13.6c.26,0,.49.22.49.48v7.78c0,.26-.23.48-.49.48h-13.6v13.01c0,.28-.22.49-.48.49h-9.4c-.28,0-.49-.22-.49-.49Z"/>
          <path class="cls-2" d="M232.63,66.96V29.05c0-.26.22-.49.48-.49h26.23c.26,0,.48.23.48.49v7.77c0,.28-.22.49-.48.49h-16.34v6.41h13.54c.28,0,.49.22.49.48v7.31c0,.28-.22.49-.49.49h-13.54v6.69h17.13c.28,0,.48.23.48.49v7.77c0,.28-.21.49-.48.49h-27.02c-.26,0-.48-.22-.48-.49Z"/>
          <path class="cls-2" d="M192.69,52.41v-23.36c0-.26.22-.49.48-.49h9.41c.26,0,.48.23.48.49v23.59c0,3.55,2.82,6.55,6.34,6.57,4.47.03,6.55-2.48,6.55-6.92v-23.24c0-.26.22-.49.49-.49h9.4c.26,0,.49.23.49.49v23.36c0,10.47-7.14,15.62-16.83,15.62s-16.82-5.15-16.82-15.62Z"/>
        </g>
      </g>
      <g>
        <path class="cls-2" d="M8.41,16.36v179.38c0,.62-.71.97-1.21.59l-6.17-5.08c-.65-.52-1.03-1.31-1.03-2.14V22.91c0-.75.24-1.47.71-2.06,2.33-2.9,5.25-4.46,6.73-5.12.46-.2.97.13.97.63Z"/>
        <g>
          <path class="cls-2" d="M176.19,160.28s-8.41.6-21.94,4.96c-15.02,4.84-27.15,4.12-37.69-1.7-6.35-3.51-20.19-10.13-35.57-3.25-17.19,7.68-23.94,16.68-44.75,20.94-13.32,2.71-23.67-.67-23.67-.67V16.84s9.45-.53,18.91-6.7C45.78.82,57.81-1.2,69.88.59h.02c12.29,1.82,20.31,9.85,32.9,14.51,12.44,4.62,23.11,5.2,32,2.71,8.89-2.5,18.72-8.24,18.72-8.24,0,0,.2,8.4,2.54,19.04,1.1,5.01,3.44,11.5,5.3,19.65,0,.01-.01.01-.01.01h.01c1.29,5.63,2.38,12.25,2.48,19.79.08,6.45-.23,12.59-1.06,18.52-.61,4.37-1.37,10.99-1.44,18.9-.06,5.8.29,12.3,1.49,19.07,1.02,5.69,2.67,11.58,5.21,17.43,4.17,9.64,8.15,18.29,8.15,18.29Z"/>
          <g>
            <path class="cls-1" d="M72.59,36.48v.6s-.99.43-.99.43c-9.1.41-20.36,5.93-31.26,11.26-2.15,1.05-4.35,2.13-6.5,3.14l-.92-.03-.14-.57c3.14-4.95,6.11-10.02,9-14.93,3.08-5.22,6.01-10.17,8.97-14.8l.98-.74,1.01.15c6.83,4.49,13.5,9.7,19.86,15.5Z"/>
            <path class="cls-1" d="M141.49,56c-2.45.53-5.01.8-7.64.8-7.08,0-14.83-1.86-23.66-5.65l-1.17-.98.07-.64c4.5-4.01,7.89-7.2,11.4-11.18l.85-.32,1.07.48c5.78,5.87,12.28,11.17,19.86,16.24l.13.61-.9.64Z"/>
            <path class="cls-3" d="M154.74,72.81c.02,2.54-.87,5.14-2.62,7.55-1.91,2.86-4.95,4.58-8.16,4.58-2.54,0-4.78-1.09-6.27-3.08-1.34-1.78-2.15-3.83-2.37-5.95l.4-.4.4-.41c.71.02,1.39.03,2.07.03,5.49,0,10.62-.94,15.67-2.88l.45.28.43.29Z"/>
            <path class="cls-7" d="M163.84,68.06l-1.41,1.34c-2.23,1.28-4.92,2.31-7.69,3.4l-.43-.28-.45-.29c-.2-2.98-1.78-5.56-4.47-7.31-1.1-.71-2.46-1.09-3.9-1.09-2.86,0-5.49,1.44-7.23,3.94-1.47,2.15-2.23,4.72-2.15,7.31l-.4.41-.4.4c-2.42-.13-4.39-.26-6.91-.64l-1.03-.57.02-.62c5.07-5.14,9.67-11.04,14.09-18.07l.9-.64,1.07.18c6.41,4.23,12.98,8.12,20,11.85l.38.68Z"/>
            <path class="cls-3" d="M145.66,93.55l-1.07.68c-3.72.88-7.14,1.36-10.36,1.36h-.01c-6.92,0-13.33-1.92-21.77-6.47l-1.17-1.1.13-.62c5.11-3.73,10.09-7.46,15.1-12.4l.88-.3,1.03.57c5.97,6.99,11.63,12.72,17.22,17.64l.02.64Z"/>
            <path class="cls-4" d="M127.4,74.07l-.02.62-.88.3c-2.11-.37-4.41-.92-6.84-1.64l-.47-.6-.52-.61c-.36-2.06-1.31-4.33-2.71-6.42-2.87-4.29-6.39-6.95-9.16-6.95-.92,0-1.74.3-2.42.88-1.28,1.08-1.74,3.3-1.26,6.14l-.38.28-.38.3c-2.28-1.14-4.46-2.31-6.4-3.46l-1.44-1.31.09-.61c5.1-3.76,9.41-6.99,13.63-10.7l.78-.11,1.17.98c5.94,8.73,11.59,16.25,17.21,22.92Z"/>
            <path class="cls-1" d="M53.3,61.9l.17.54-1.32,1.34c-2.7,1.7-5.38,3.25-7.96,4.64l-.41-.25-.43-.26c.05-2.95-1.11-5.17-3.27-6.22-.76-.38-1.59-.56-2.46-.56-3.02,0-7.85,2.55-11.8,8.26-1.34,1.93-2.23,4.25-2.5,6.6l-.48.56-.46.56c-2.98.77-5.63,1.41-8.85,1.84l-.95-.31.32-.88c7.48-7,13.09-15.71,18.94-24.93l1.09-.97.92.03c5.65,3.15,12.03,6.42,19.46,10.01Z"/>
            <path class="cls-3" d="M117.05,79.38c-.63.43-1.38.64-2.23.64-3.15,0-7.15-2.93-9.95-7.3-1.17-1.84-2.09-4.15-2.52-6.37l.38-.3.38-.28c3.83,1.88,9.51,4.46,15.56,6.35l.52.61.47.6c.14,2.69-.77,4.83-2.61,6.03Z"/>
            <path class="cls-3" d="M34.13,94.81l-.11-.57c5.77-8.18,10.02-15.88,13.78-22.67,1.52-2.75,2.95-5.37,4.37-7.78l1.32-1.34.88-.06c10,4.84,16.45,8.65,22.05,13.1v.57s-1.28.63-1.28.63c-9.44,1.65-18.69,6.84-26.91,11.43-4.62,2.59-9,5.03-13.13,6.74l-.97-.06Z"/>
            <path class="cls-5" d="M76.58,117.16l.05.61-1.18.71c-6.6,1.75-13.02,5.5-19.8,9.44-6.51,3.78-13.25,7.66-20.5,9.97l-1.02-.11-.1-.56c7.73-10.11,13.49-20.52,18.96-30.62l1.23-1.38.86-.09c7.65,3.38,14.88,7.4,21.51,12.03Z"/>
            <path class="cls-2" d="M83.81,105.3c-2.11,2.14-5.37,3.41-8.69,3.41-2.77,0-5.29-.85-7.28-2.47-1.95-1.56-3.08-4.06-3.16-6.92l.43-.67.47-.67c5.23-2.24,10.38-3.38,15.32-3.38,1.7,0,3.41.14,5.09.4l.53.53.49.54c.39,3.44-.76,6.77-3.19,9.22Z"/>
            <path class="cls-5" d="M34.13,137.78l-1.12.77c-3.04.86-5.96,1.52-8.69,1.96-2.72.44-5.26.67-7.54.67-1.39,0-2.69-.08-3.87-.25l-.34-.49v-20.6l.91.39c6.14,6.87,12.7,12.29,20.54,16.99l.1.56Z"/>
            <path class="cls-1" d="M96.28,98.71l-.09.64-.78.07c-2.55-1.31-5.39-2.71-8.4-3.33l-.49-.54-.53-.53c-.4-1.99-1.11-3.71-2.13-5.09-1.65-2.26-4.02-3.52-6.66-3.52-2.85,0-5.81,1.45-8.12,3.98-2.02,2.21-3.25,4.88-3.49,7.61l-.47.67-.43.67c-2.94,1.37-6.19,3.45-9.61,5.8l-.86.09-.2-.55c6.02-11.05,12.77-19.98,21.12-27.98l1.29-.63,1.06.31c6.81,5.63,12.66,12.58,18.8,22.34Z"/>
            <path class="cls-7" d="M120.42,111.19c.07,3.14-.92,5.75-2.64,6.91-.56.38-1.21.56-1.92.56-2.87,0-6.77-3.24-9.7-8.07-1.33-2.19-2.26-4.61-2.63-6.83l.38-.28.39-.28c4.66,2.46,9.71,4.96,15.19,6.78l.48.61.45.59Z"/>
            <path class="cls-5" d="M97.34,100.43c5.86,9.36,10.93,17.44,16.13,24.99l-.09.6-.76.02c-6.74-3.85-15.7-8.89-26.77-8.89-2.68,0-5.42.28-8.19.83l-1.03-.21-.05-.61c5.21-5.84,11.38-11.64,18.82-17.74l.78-.07,1.16,1.08Z"/>
            <path class="cls-5" d="M162.84,124.56l-.22.6c-4.68,2.4-9.71,4.38-14.01,5.5l-.98-.18-.11-.62c4.79-7.35,9.24-15.4,12.9-23.4l.92-.98c-.06,5.8.29,12.3,1.49,19.07Z"/>
            <path class="cls-2" d="M45.73,155.94l.44.26c.09,2.7-.78,5.65-2.54,8.57-2.54,4.21-6.12,6.53-10.1,6.53-2.1,0-4.16-.65-5.97-1.88-2.34-1.6-3.93-4.3-4.29-7.3l.38-.45.39-.45c7.28-.53,14.42-2.39,21.23-5.54l.46.25Z"/>
            <path class="cls-4" d="M86.51,95.55c3.39.61,6.55,2.16,9.67,3.8-8.18,6.65-14.51,12.73-19.56,18.42-6.57-4.63-14.02-8.89-22.42-12.55,3.69-2.6,7.47-5.03,10.89-6.56-.09,2.93.95,5.61,3,7.25,4.69,3.76,11.79,2.73,15.41-.91,2.48-2.49,3.57-5.93,3-9.46Z"/>
            <path class="cls-3" d="M76.42,76.06v-.57c5.75-5.33,11.64-9.66,17.29-13.83l.8-.06,1.44,1.31c3.81,5.42,7.45,11.39,11.26,17.66,1.36,2.23,2.76,4.53,4.18,6.83l-.13.62-.79.03c-1-.56-2.06-1.16-3.14-1.79-7.66-4.46-17.2-10.01-27.27-10.01-.87,0-1.73.05-2.6.13l-1.06-.31Z"/>
            <path class="cls-2" d="M102.73,66.06c-.51-2.77-.22-5.41,1.36-6.73,3.26-2.76,8.47.55,12.23,6.15,1.61,2.4,2.62,4.98,2.87,7.27-5.69-1.74-11.49-4.23-16.45-6.69Z"/>
            <path class="cls-2" d="M123.76,147.92l.49.62c.1,2.65-.79,4.95-2.36,5.97-.52.36-1.18.53-1.98.53-2.82,0-7.11-2.23-9.86-6.49-1.56-2.42-2.7-5.09-3.21-7.56l.39-.3.38-.32c2.79,1.14,5.23,2.29,7.58,3.41,2.75,1.3,5.35,2.53,8.02,3.49l.53.64Z"/>
            <path class="cls-5" d="M147.52,129.86l.11.62-.91.62c-3.72.83-7.43,1.28-11.04,1.28-7.37,0-14.43-1.78-20.99-5.18l-1.31-1.17.09-.6c5.26-3.84,9.8-8.1,14.31-12.51l.91-.29.97.52c5.65,6.56,11.51,12.01,17.87,16.72Z"/>
            <path class="cls-2" d="M154.83,109.22c.1,2.65-.68,5.55-2.15,8-1.76,2.9-4.5,4.57-7.55,4.57-1.92,0-3.78-.68-5.25-1.88-1.99-1.64-3.11-3.86-3.25-6.45l.41-.44.43-.45c5.48-.29,10.86-1.57,16.45-3.91l.46.26.45.29Z"/>
            <path class="cls-3" d="M54.21,105.22l-1.23,1.38c-2.92,2.03-5.61,3.83-8.26,5.25l-.43-.25-.44-.25c-.1-2.52-1.13-4.37-3.04-5.52-1.15-.69-2.42-1.03-3.77-1.03-3.37,0-7.11,2.17-10.28,5.97-1.8,2.15-2.98,4.89-3.26,7.59l-.48.52-.45.51c-3.02.48-5.71.69-9.09.84l-.91-.39.38-.91c8.58-7.7,14.43-15.37,20.02-23.22l1.16-.9.97.06c6.48,3.81,13.16,7.26,18.92,9.8l.2.55Z"/>
            <path class="cls-3" d="M34.13,94.81l-1.16.9c-7.08,2.68-13.24,4.04-18.34,4.04-.56,0-1.13-.02-1.67-.06l-.39-.45v-20.6l.95.31c5.39,5.16,12.79,10.68,20.49,15.28l.11.58Z"/>
            <path class="cls-3" d="M132.73,149.07l.03.6-.88.31c-2.64-.2-4.96-.57-7.63-1.44l-.49-.62-.53-.64c-.28-1.67-1.05-3.98-3.03-6.5-3.16-4.04-6.64-6.45-9.33-6.45-.92,0-1.71.29-2.36.85-1,.86-1.32,2.75-.88,5.19l-.38.32-.39.3c-2.4-.97-4.49-1.71-6.86-2.44l-1.23-.77v-.61c4.79-4.45,9.47-7.97,13.86-11.13l.76-.02,1.31,1.17c6.1,8.68,12.01,15.84,18.04,21.88Z"/>
            <path class="cls-1" d="M121.34,38.03l-.09-.72c3.91-4.53,8.41-10.31,12.63-18.86l.93-.63,1,.17c5.15,3.53,13.18,7.59,19.74,9.98l.52.64-1.06,1.36c-2.08,1.56-4.31,2.94-6.63,4.09l-.47-.24-.48-.24c-.59-2.88-2.45-5.19-5.27-6.53-1.02-.48-2.09-.74-3.17-.74-3.14,0-6.16,2.1-7.69,5.34-.94,2.01-1.29,4.14-.99,6.17l-.36.44-.34.45c-.76.03-1.53.05-2.31.05-1.59,0-3.25-.11-4.88-.25l-1.07-.48Z"/>
            <path class="cls-3" d="M161.34,105.49l-.92.98c-1.87,1.02-3.76,1.96-5.6,2.76l-.45-.29-.46-.26c-.2-2.03-.95-3.72-2.17-4.79-1.26-1.1-2.79-1.69-4.42-1.69-2.64,0-5.37,1.52-7.48,4.16-1.44,1.79-2.3,4.03-2.38,6.23l-.43.45-.41.44c-.52.02-1.05.03-1.56.03-1.78,0-3.6-.15-5.41-.36l-.97-.52.02-.63c5.43-5.35,10.63-11.15,15.88-17.76l1.07-.68.9.22c4.47,3.84,9.19,7.45,14.41,10.95l.38.77Z"/>
            <path class="cls-1" d="M32.92,51.86l-1.09.97c-7.66,3.49-14.44,5.53-18.87,5.64l-.39-.42v-20.6l.94.28c5.24,4.72,11.88,9.4,19.27,13.57l.14.57Z"/>
            <path class="cls-2" d="M21.93,35.27l.44-.61.46-.62c4.81-1.83,8.85-4.1,12.75-6.31,2.1-1.18,4.26-2.4,6.5-3.53l.45.26.45.25c.17,2.95-.7,6.35-2.42,9.4-3,5.29-7.45,8.56-11.61,8.56-1.67,0-3.21-.51-4.57-1.52-1.54-1.14-2.41-3.26-2.45-5.89Z"/>
            <path class="cls-3" d="M43.78,68.18l.41.25c-.14,2.67-1.14,5.62-2.91,8.57-3.32,5.54-7.76,8.84-11.85,8.84-1.54,0-2.95-.47-4.21-1.39-1.92-1.41-2.96-4.13-2.86-7.33l.46-.56.48-.56c6.54-2.05,13.18-4.41,20.04-8.08l.43.26Z"/>
            <path class="cls-3" d="M66.51,64.96c-2.13-1.95-3.27-4.44-3.33-7.23l.45-.62.48-.63c3.58-1.17,7.04-1.74,10.55-1.74,3.24,0,6.43.49,9.73,1.49l.54.63.49.62c.17,2.98-.8,5.78-2.72,7.81-1.75,1.85-4.5,2.9-7.59,2.9s-6.34-1.17-8.59-3.24Z"/>
            <path class="cls-1" d="M98.78,137.18v.61s-.82.2-.82.2c-2.6-.65-5.62-1-9.01-1.1l-.47-.44-.48-.44c-.32-2.26-1.36-4.42-3-5.88-1.68-1.48-3.54-2.24-5.52-2.24-3.56,0-7.26,2.53-9.92,6.76-1.42,2.28-2.49,4.86-2.69,7.1l-.46.74-.41.74c-3.18,1.79-6.1,4.18-9.01,6.31l-.78.11-.2-.57c5.07-10.11,10.1-19.83,19.42-30.58l1.18-.71,1.03.21c7.72,5.53,14.81,12,21.12,19.2Z"/>
            <path class="cls-1" d="M73.67,37.49l-1.08-.41v-.6c5.54-5.6,12.36-10.35,17.25-13.56l.84-.05,1.62,1.44c4.61,6.24,8.63,12.51,12.2,18.12,1.64,2.57,3.18,5.01,4.58,7.1l-.07.64-.78.11c-2.5-1.14-5.07-2.4-7.56-3.63-8.77-4.34-17.86-8.86-27-9.17Z"/>
            <path class="cls-1" d="M112.44,89.11c4.18,6.7,9.67,15.04,16.27,22.88l-.02.63-.91.29c-2.42-.38-4.84-.95-7.37-1.72l-.45-.59-.48-.61c-.23-2.09-.92-4.17-2.01-6.06-3.23-5.52-6.85-7.48-8.97-7.48-1.07,0-2.06.44-2.92,1.28-1.15,1.13-1.61,3.06-1.29,5.48l-.39.28-.38.28c-1.13-.59-2.23-1.2-3.32-1.78-.99-.53-1.93-1.06-2.87-1.55l-1.15-1.08.09-.64c4.44-3.58,8.56-6.56,12.56-9.47.56-.4,1.09-.79,1.64-1.19l.79-.03,1.17,1.1Z"/>
            <path class="cls-2" d="M160.02,145.18c.76,2.87.34,6.08-1.16,8.65-1.45,2.5-4.39,4.07-7.66,4.07-2.07,0-4.02-.61-5.65-1.76-2.25-1.59-3.68-3.78-4.13-6.31l.37-.49.38-.48c6.26-.82,11.97-2.56,16.78-4.22l.55.26.53.28Z"/>
            <path class="cls-1" d="M161.36,48.27s-.01.01-.01.01l-.28.67c-5.42,3.19-11.86,5.14-17.61,6.59l-1.07-.18-.13-.61c4.17-6.8,8.35-14.92,12.74-24.77l1.06-1.36c1.1,5.01,3.44,11.5,5.3,19.65Z"/>
            <path class="cls-3" d="M162.78,86.59l-.55.8c-4.62,2.57-10.36,4.92-15.67,6.38l-.9-.22-.02-.64c4.79-6.12,10.15-13.6,16.79-23.5l1.41-1.34c.08,6.45-.23,12.59-1.06,18.52Z"/>
            <path class="cls-7" d="M94.61,60.98l-.09.61-.8.06c-3.02-1.78-5.41-3.17-8.3-4.16l-.49-.62-.54-.63c-.37-2.06-1.33-4-2.8-5.65-2.3-2.59-5.1-4.01-7.89-4.01-2.49,0-4.85,1.09-6.69,3.23-1.65,1.92-2.65,4.34-2.9,6.68l-.48.63-.45.62c-3.08,1.11-5.63,2.65-8.81,4.65l-.88.06-.17-.54c5.99-9.81,11.98-17.8,18.3-24.41l.99-.43,1.08.41c7.94,7.38,14.79,15.04,20.94,23.5Z"/>
            <path class="cls-3" d="M119.97,110.6c2.8.88,5.7,1.59,8.72,2.02-5.17,5.06-9.81,9.43-15.3,13.4-5.55-7.99-11.04-16.81-17.2-26.67,2.5,1.31,5.08,2.72,7.72,4.14.34,2.23,1.28,4.68,2.62,6.88,3.3,5.42,8.16,9.26,11.01,7.37,1.72-1.15,2.64-3.92,2.44-7.14Z"/>
            <path class="cls-5" d="M133.19,44.53c-1.85-1.52-3.08-3.52-3.6-5.81l.34-.45.36-.44c6.18-.34,11.94-1.78,17.12-4.25l.48.24.47.24c.28,1.96.01,4.04-.78,6.04-1.76,4.45-4.73,6.99-8.18,6.99-2.05,0-4.14-.86-6.22-2.56Z"/>
            <path class="cls-7" d="M152.03,103.56c1.42,1.25,2.21,3.19,2.36,5.38-6.19,2.62-11.94,3.85-17.34,4.09-.02-2.47.9-5,2.47-6.95,3.71-4.63,8.95-5.64,12.51-2.52Z"/>
            <path class="cls-7" d="M168.04,141.99l-.68.63c-1.57.49-3.08,1.06-4.95,1.72-.77.26-1.57.55-2.39.84l-.53-.28-.55-.26c-.71-2-2.01-3.58-3.78-4.58-1.53-.87-3.1-1.31-4.65-1.31-2.69,0-5.12,1.34-6.7,3.68-1.23,1.84-1.83,4.22-1.64,6.43l-.38.48-.37.49c-2.14.23-4.07.28-6.09.28-.49,0-1.01-.01-1.51-.02l-1.06-.43-.03-.6c4.8-5.18,9.51-11.2,13.99-17.97l.91-.62.98.18c5.79,4.17,12.1,7.72,18.74,10.57l.69.76Z"/>
            <path class="cls-4" d="M80.99,160.29c-17.19,7.68-23.94,16.68-44.75,20.94l-.07-.57c8.88-9.75,13.47-18.63,17.88-27.61.33-.67.66-1.33.99-2l1.18-1.41.78-.11c4.18,1.94,8.39,3.36,12.44,5.14,4.02,1.76,7.81,3.4,11.38,5.05l.17.59Z"/>
            <path class="cls-4" d="M63.62,57.11c.1-2.71,1.19-5.46,3.03-7.59,4.26-4.94,10.69-4.38,15.26.77,1.78,2.01,2.75,4.31,3.01,6.58-6.95-2.25-13.87-2.33-21.3.24Z"/>
            <path class="cls-4" d="M88.96,136.88c.18,3.08-.8,6.17-2.79,8.73-3.01,3.88-6.68,6.03-10.35,6.03-1.46,0-2.93-.33-4.35-.99-3.23-1.49-5.27-4.13-5.45-7.45l.41-.74.46-.74c7.17-3.86,14.21-5.71,21.12-5.73l.48.44.47.44Z"/>
            <path class="cls-4" d="M154.25,165.25c-15.02,4.84-27.15,4.12-37.69-1.7l.16-.65c5.23-3.34,10.03-7.51,15.16-12.92l.88-.31h0s1.05.42,1.05.42c9.37,9.07,18.69,13.79,20.36,14.6l.07.55Z"/>
            <path class="cls-4" d="M141.79,149.34c-.36-2.67.44-5.32,1.67-7.16,2.54-3.79,7.3-5.14,11.93-2.5,2.08,1.18,3.45,3.08,4.11,5.23-5.08,1.76-11.05,3.63-17.71,4.44Z"/>
            <path class="cls-4" d="M43.86,111.35l.44.25.43.25c-.01,3.11-1.31,6.81-3.57,10.2-2.65,3.98-6.37,6.25-10.18,6.25-2.14,0-4.11-.7-5.72-2.06-1.78-1.48-2.73-3.96-2.68-6.86l.45-.51.48-.52c7.11-1.26,13.78-3.56,20.36-7.02Z"/>
            <path class="cls-5" d="M34.13,94.81c-9.07-5.39-16.64-11.35-21.56-16.17,3.73-.45,6.57-1.13,10.26-2.09-.24,3.16.62,6.06,2.65,7.55,4.42,3.26,10.88.25,15.43-7.33,1.84-3.07,2.78-6.04,2.86-8.59,3.15-1.69,6.37-3.58,9.7-5.73-5.19,8.53-10.54,19.94-19.35,32.37Z"/>
            <path class="cls-5" d="M56.22,149.63l-1.18,1.41c-2.64,1.84-5.72,3.68-8.87,5.16l-.44-.26-.46-.25c-.24-2.83-1.7-5.1-4.02-6.25-1.33-.67-2.8-1.01-4.37-1.01-4.12,0-8.39,2.38-10.86,6.04-1.41,2.09-2.09,4.41-1.99,6.76l-.39.45-.38.45c-1.32.08-2.54-.17-3.73-.17-1.96,0-3.91-.16-5.91-.37,7.31,7.67,14.69,13.72,22.54,19.08l.07.57c-13.32,2.71-23.67-.67-23.67-.67v-19.51l.31-.81c8.74-7.2,14.38-14.26,20.13-21.69l1.12-.77,1.02.11c5.77,3.37,12.24,7.12,20.88,11.16l.2.57Z"/>
            <path class="cls-4" d="M36.24,181.23c-13.32,2.71-23.67-.67-23.67-.67v-19.51l1.06.53c7.31,7.67,14.69,13.72,22.54,19.08l.07.57Z"/>
            <path class="cls-3" d="M65.1,98.66c.09-2.86,1.26-5.96,3.64-8.56,4.66-5.09,11.59-5.71,15.45-.43,1.34,1.84,1.99,3.95,2.31,5.87-6.57-1.18-13.68-.32-21.41,3.11Z"/>
            <path class="cls-5" d="M90.78,22.28l-.1.6-.84.05c-2.28-1.17-4.88-2.24-8.37-3.26l-.54-.62-.59-.61c-.53-1.97-1.59-3.96-2.95-5.56-2.25-2.61-5.02-4.1-7.58-4.1-1.94,0-3.75.82-5.35,2.42s-2.51,4.08-2.48,6.72l-.41.52-.4.52c-2.66.48-5.25,1.14-8.42,2.04l-1.01-.15-.12-.59c6.16-9.41,11.8-15.8,17.2-19.46l1.08-.18h.01s0,0,0,0h0s1.46.61,1.46.61c5.62,4.54,12.46,11.95,19.42,21.07Z"/>
            <path class="cls-4" d="M116.73,162.89l-.16.65c-6.35-3.51-20.19-10.13-35.57-3.25l-.17-.59c4.68-8.11,10.28-15.21,17.14-21.73l.81-.2,1.23.77c6.41,7.57,12.31,15.59,16.73,24.34Z"/>
            <path class="cls-5" d="M163.84,68.06c-6.76,10.09-12.64,18.45-18.18,25.49-6.35-5.54-12.29-11.8-18.28-18.86,2.87.44,5.3.67,8.34.82.14,2.17.95,4.31,2.3,6.09,3.36,4.44,10.3,3.7,13.75-1.49,1.83-2.53,2.63-5.15,2.54-7.57,2.87-1.14,6.38-2.49,9.53-4.47Z"/>
            <path class="cls-4" d="M176.19,160.28s-8.41.6-21.94,4.96l-.07-.55c5.1-5.48,10.41-14.38,13.18-22.07l.68-.63c4.17,9.64,8.15,18.29,8.15,18.29Z"/>
            <path class="cls-3" d="M45.73,155.94c-6.16,2.88-13.67,5.18-22.08,5.73-.21-2.4.39-5.02,2.02-7.45,3.38-5.01,10.3-7.91,15.78-5.18,2.53,1.25,4.1,3.75,4.29,6.89Z"/>
            <path class="cls-1" d="M44.29,111.6c-7.25,3.84-14.16,6.08-21.28,7.28.18-2.85,1.36-5.92,3.42-8.4,4.52-5.4,10.2-7.65,14.59-5.02,2.26,1.36,3.22,3.58,3.26,6.14Z"/>
            <path class="cls-1" d="M45.73,155.94c4-1.87,7.7-4.23,10.49-6.31-5,10-9.65,20.35-19.98,31.6-9.27-6.27-16.9-12.97-23.67-20.18,4.03.53,7.45.86,11.08.62.25,3.07,1.8,5.79,4.15,7.39,4.45,3.02,11.11,2.71,15.47-4.5,1.87-3.1,2.62-6.08,2.47-8.62Z"/>
            <path class="cls-1" d="M73.23,29.34c-2.82,0-5.81-1.11-8.22-3.04-2.21-1.79-3.56-4.39-3.85-7.35l.4-.52.41-.52c3.04-.52,5.84-.77,8.5-.77,3.42,0,6.65.43,9.87,1.29l.59.61.54.62c.41,2.87-.32,5.43-2.11,7.28-1.54,1.57-3.67,2.4-6.14,2.4Z"/>
            <path class="cls-2" d="M88.49,136.44c-7.53-.16-14.83,2.03-22.06,6.03.06-2.42,1.09-5.34,2.79-8.07,4.14-6.61,10.8-9.26,16.07-4.61,1.96,1.74,2.96,4.24,3.19,6.64Z"/>
            <path class="cls-4" d="M117.84,103.72c1.31,2.25,1.99,4.68,2.13,6.88-5.72-1.84-11.03-4.46-16.06-7.11-.37-2.49,0-4.71,1.38-6.06,4.01-3.91,9.51,1.08,12.56,6.29Z"/>
            <path class="cls-1" d="M168.04,141.99c-2.94,8.61-8.74,17.95-13.79,23.26,0,0-10.75-4.95-21.49-15.58,3.18.16,6.03.05,9.02-.32.3,2.33,1.48,4.67,4.01,6.45,4.18,2.94,10.35,1.87,12.7-2.17,1.52-2.62,1.87-5.88,1-8.71,3.37-1.17,6.07-2.21,8.55-2.92Z"/>
            <path class="cls-2" d="M32.92,51.86c13.42-6.3,28.3-14.76,39.69-14.79-6.88,7.04-13.09,15.41-19.13,25.37-5.7-2.73-13.19-6.46-20.56-10.58Z"/>
            <path class="cls-7" d="M123.76,147.92c2.85.98,5.6,1.56,9.02,1.75-5.18,5.54-10.34,10.18-16.21,13.88-3.78-7.56-9.81-16.53-17.8-25.76,3.24.92,5.87,1.84,8.48,2.91.46,2.38,1.57,5.11,3.18,7.63,3.26,5.04,8.99,7.32,11.24,5.84,1.46-.97,2.39-3.31,2.09-6.24Z"/>
            <path class="cls-2" d="M145.66,93.55c-6,7.63-11.54,13.74-16.97,19.07-6.72-7.93-12.32-16.36-17.42-24.61,12.42,6.94,21.42,8.9,34.39,5.54Z"/>
            <path class="cls-6" d="M168.04,141.99c-7.7-3.23-14.43-7.12-20.41-11.51,5.21-1.25,10.81-3.62,15.2-5.92,1.02,5.69,2.67,11.58,5.21,17.43Z"/>
            <path class="cls-6" d="M163.84,68.06c-7.73-4.08-14.79-8.29-21.45-12.71,5.95-1.48,13.11-3.5,18.96-7.08h.01c1.29,5.63,2.38,12.25,2.48,19.79Z"/>
            <path class="cls-1" d="M44.29,111.6c3.22-1.71,6.48-3.96,9.92-6.38-6.15,11.35-11.97,22.03-20.08,32.56-8.79-5.22-15.6-11.16-21.56-17.95,3.78-.15,6.87-.36,10.44-.95-.18,2.85.63,5.47,2.5,7.04,4.01,3.37,10.78,2.63,15.27-4.11,2.11-3.17,3.55-6.96,3.5-10.21Z"/>
            <path class="cls-3" d="M13.51,37.72l-.94-.28.34-.94c5.24-5.25,12.32-16.07,17.45-25.23l1.11-1.13.86-.11c6.34,2.63,12.82,6.07,19.26,10.21l.13.59-.98.74c-2.55.82-5.06,1.83-7.77,3.16l-.45-.25-.45-.26c-.24-2.11-1.08-3.68-2.39-4.4-.91-.51-1.96-.77-3.11-.77-3.85,0-8.02,2.73-10.9,7.14-1.63,2.49-2.63,5.26-2.85,7.87l-.46.62-.44.61c-2.65.97-5.07,1.83-8.42,2.45Z"/>
            <path class="cls-1" d="M84.92,56.87c3.38,1.09,6.23,2.69,9.59,4.72-5.95,4.38-12.06,8.85-18.1,14.47-6.43-5.15-13.75-9.2-22.95-13.62,3.65-2.37,6.66-4.12,10.15-5.33-.09,2.69.84,5.39,3.18,7.53,4.62,4.24,12.16,3.99,15.57.38,1.95-2.08,2.9-5.08,2.55-8.15Z"/>
            <path class="cls-2" d="M142.39,55.35c-5.14,8.32-10.07,14.39-15.01,19.34-6.07-7.17-12.1-15.25-18.36-24.52,11.95,5.34,23.21,7.71,33.37,5.18Z"/>
            <path class="cls-6" d="M162.78,86.59c-.61,4.37-1.37,10.99-1.44,18.9-5.54-3.7-10.71-7.6-15.68-11.94,5.12-1.33,11.67-3.81,17.12-6.96Z"/>
            <path class="cls-1" d="M119.19,72.75c2.79.86,5.57,1.54,8.19,1.94-5.25,5.26-10.53,9.25-16.11,13.32-5.84-9.41-11.09-18.57-16.75-26.42,2.23,1.36,5.06,2.91,8.22,4.47.4,2.26,1.33,4.6,2.5,6.42,3.46,5.39,8.72,8.43,11.58,6.54,1.94-1.29,2.65-3.61,2.37-6.27Z"/>
            <path class="cls-1" d="M98.53,28.2c-1.28-.82-5.24-3.26-6.23-3.9l-1.62-1.44.1-.6c.95-.62,1.94-1.29,2.88-1.93,2.63-1.79,5.12-3.64,8.1-5.19l1.03-.05,1.37.82c3.71,4.01,7.19,8.49,10.1,12.48,2.46,3.37,4.78,6.54,6.97,8.9l.09.72-.85.32c-1.95-.26-3.76-1.05-5.89-1.77l-.59-.67-.65-.7c-.69-2.25-1.99-4.75-3.69-7.14-2.39-3.33-5.89-6.88-8.57-6.88-.7,0-1.29.24-1.8.74-.87.86-.88,2.98-.03,5.7l-.37.28-.36.3Z"/>
            <path class="cls-1" d="M161.34,105.49c-3.6,7.96-8.24,16.64-13.71,24.99-7.32-5.37-13.51-11.44-18.95-17.86,2.69.37,5.47.53,8.35.4.03,2.41.97,4.78,3.11,6.55,3.34,2.77,9.03,2.6,12.16-2.59,1.54-2.54,2.24-5.47,2.07-8.05,2.25-.95,4.57-2.1,6.96-3.45Z"/>
            <path class="cls-6" d="M32.92,51.86c-6.24,9.86-12.19,19.34-20.35,26.79v-20.6c5.16,0,13.07-2.77,20.35-6.18Z"/>
            <path class="cls-6" d="M34.13,137.78c-5.87,7.64-11.91,15.42-21.56,23.27v-20.61c5.36.91,13.12-.14,21.56-2.66Z"/>
            <path class="cls-6" d="M34.13,94.81c-5.73,8.09-12,16.6-21.56,25.03v-20.59c5,.4,12-.67,21.56-4.43Z"/>
            <path class="cls-1" d="M111.73,42.78c-2.94,0-7.09-4.16-9.89-8.27-1.57-2.31-2.68-4.42-3.31-6.31l.36-.3.37-.28c4.7,2.94,9.31,5.73,14.1,7.58l.65.7.59.67c.41,2.15.18,3.88-.68,5.08-.53.74-1.29,1.13-2.18,1.13Z"/>
            <path class="cls-1" d="M120.54,140.5c2.02,2.57,2.99,5.17,3.22,7.42-5.24-1.79-10.02-4.6-16.51-7.23-.51-2.6-.24-4.79.98-5.85,2.68-2.34,7.62-.36,12.32,5.65Z"/>
            <path class="cls-1" d="M154.31,72.52c-6.78,2.68-12.88,3.25-18.59,2.99-.18-2.77.59-5.62,2.21-7.96,3.06-4.42,8.42-5.09,11.7-2.96,2.92,1.9,4.57,4.76,4.69,7.94Z"/>
            <path class="cls-2" d="M34.13,137.78c15.53-4.62,28.69-16.92,42.5-20.02-10.27,11.59-15.51,22.07-20.41,31.86-7.49-3.49-15.05-7.66-22.1-11.85Z"/>
            <path class="cls-2" d="M54.21,105.22c-6.15-2.68-13.27-6.38-20.08-10.41,12.21-4.84,26.78-16.6,42.3-18.75-7.65,7.15-15.18,16.14-22.21,29.16Z"/>
            <path class="cls-2" d="M147.64,130.48c-4.45,6.79-9.43,13.36-14.86,19.19-7.05-7-13.37-14.95-19.4-23.65,11.66,6.63,23.61,7.03,34.25,4.46Z"/>
            <path class="cls-6" d="M72.61,37.07c12.5-.03,24.76,7.89,36.41,13.1-4.67,4.15-9.53,7.76-14.5,11.42-6.65-9.19-14.02-17.27-21.91-24.52Z"/>
            <path class="cls-6" d="M76.42,76.06c13.26-1.83,25.77,6.89,34.85,11.95-4.75,3.46-9.71,6.96-15.09,11.34-6.53-10.44-12.6-17.55-19.76-23.29Z"/>
            <path class="cls-2" d="M113.38,126.02c-4.56,3.29-9.57,7.03-14.62,11.77-5.96-6.87-13.25-13.77-22.14-20.02,16.67-3.73,28,3.3,36.76,8.25Z"/>
            <path class="cls-4" d="M42.54,24.47c-6.64,3.29-12.29,7.31-20.17,10.19.09-2.7,1.06-5.83,2.95-8.72,4.1-6.26,10.5-8.77,14.58-6.51,1.56.86,2.45,2.72,2.63,5.04Z"/>
            <path class="cls-2" d="M43.78,68.18c-7.27,3.9-14.13,6.61-20.95,8.38.2-2.5,1.08-5.17,2.63-7.41,3.4-4.91,9.87-10.26,14.8-7.84,2.42,1.18,3.63,3.69,3.52,6.87Z"/>
            <path class="cls-3" d="M61.56,18.43c-.16-2.9.79-5.76,2.59-7.55,4.53-4.52,9.97-2.47,13.57,1.7,1.52,1.77,2.73,4.09,3.22,6.46-6.15-1.77-12.26-1.86-19.37-.61Z"/>
            <path class="cls-3" d="M88.49,136.44c3.19.06,6.86.39,10.28,1.34-6.15,5.76-12.34,12.95-17.78,22.51-7.48-3.5-16.18-6.66-24.77-10.66,3.5-2.62,6.85-5.3,10.2-7.16-.08,3.75,2.1,6.35,5.22,7.79,5.17,2.38,10.3.11,14.18-4.92,1.98-2.55,2.99-5.66,2.67-8.9Z"/>
            <path class="cls-4" d="M110.01,27.82c1.92,2.68,3.37,5.56,4,8.09-5.25-1.91-10.26-4.95-15.12-8.01-.87-2.73-1.01-5.19.1-6.29,2.84-2.78,7.73,1.62,11.02,6.2Z"/>
            <path class="cls-2" d="M147.9,33.82c-5.62,2.73-11.71,4.15-17.96,4.45-.4-2.18-.1-4.54.95-6.79,2.1-4.42,6.93-6.94,11.43-4.81,3.21,1.52,5.06,4.16,5.57,7.16Z"/>
            <path class="cls-3" d="M121.34,38.03c-3.91,4.49-7.68,8.01-12.32,12.15-4.67-6.89-10.81-17.41-18.34-27.3,3,1.62,5.06,3.06,8.2,5.03.69,2.14,1.95,4.37,3.31,6.35,3.64,5.34,9.16,10.2,11.36,7.15.93-1.3,1-3.25.45-5.49,2.47.91,4.78,1.85,7.33,2.11Z"/>
            <path class="cls-4" d="M80.94,19.03c3.04.87,6.61,2.13,9.74,3.84-6.38,4.16-12.83,8.82-18.09,14.2-6.79-6.24-13.86-11.7-20.87-16.25,3.6-1.05,6.66-1.85,9.84-2.4.14,2.77,1.31,5.57,3.72,7.53,4.26,3.45,10.38,4.15,13.75.68,2.03-2.09,2.45-4.87,1.9-7.59Z"/>
            <path class="cls-4" d="M156.06,28.62c-4.83,10.96-9.31,19.68-13.67,26.74-7.73-5.14-14.73-10.79-21.05-17.33,2.88.3,5.76.39,8.61.24.43,2.29,1.62,4.37,3.53,5.93,5.61,4.6,11.04,2.54,13.72-4.24.82-2.06,1.05-4.17.71-6.14,2.85-1.39,5.58-3.11,8.16-5.21Z"/>
            <path class="cls-5" d="M51.73,20.83c-6.08,9.35-12.06,20.41-18.81,31.03-8.12-4.56-15.16-9.63-20.35-14.42,4.03-.67,6.66-1.63,9.8-2.78-.1,2.7.68,4.98,2.26,6.16,4.73,3.5,11.42.38,15.56-6.92,1.8-3.19,2.57-6.64,2.34-9.43,2.82-1.39,5.79-2.65,9.19-3.64Z"/>
            <path class="cls-6" d="M69.88.59s0,0,0,0c-6.42,4.02-12.48,11.51-18.15,20.23-6.9-4.48-13.76-8.07-20.24-10.68C45.78.82,57.81-1.2,69.88.59Z"/>
            <path class="cls-6" d="M156.06,28.62c-7.34-2.6-16.17-7.16-21.26-10.8,8.89-2.5,18.72-8.24,18.72-8.24,0,0,.2,8.4,2.54,19.04Z"/>
            <path class="cls-6" d="M134.8,17.82c-4.14,8.58-8.56,14.56-13.47,20.21-5.19-5.38-10.99-15.18-18.53-22.92,12.44,4.62,23.11,5.2,32,2.71Z"/>
            <path class="cls-6" d="M31.48,10.14c-4.9,8.89-12.98,21.7-18.91,27.3v-20.6s9.45-.53,18.91-6.7Z"/>
            <path class="cls-6" d="M102.8,15.1c-4.53,2.23-8.19,5.2-12.12,7.77-6.7-8.82-14.36-17.42-20.79-22.28h0s0,0,0,0c0,0,0,0,.01,0,12.29,1.82,20.31,9.85,32.9,14.51Z"/>
          </g>
        </g>
      </g>
    </g>
  </g>
</svg>