<?xml version="1.0" encoding="UTF-8"?>
<svg id="Layer_2" xmlns="http://www.w3.org/2000/svg" viewBox="0 0 924 332.22">
  <defs>
    <style>
      .cls-1 {
        fill: #f4b22f;
      }

      .cls-2 {
        fill: #f5f7f8;
      }
    </style>
  </defs>
  <g id="Layer_1-2" data-name="Layer_1">
    <g>
      <polygon class="cls-1" points="249.17 83.06 332.22 0 83.06 0 0 83.06 0 249.17 83.06 332.22 249.17 332.22 249.17 249.17 166.11 166.11 166.11 249.17 83.06 249.17 83.06 83.06 249.17 83.06"/>
      <polygon class="cls-2" points="602.16 249.17 519.1 249.17 519.1 124.58 436.05 207.64 436.05 249.17 519.1 332.22 602.16 332.22 685.21 249.17 685.21 0 602.16 83.06 602.16 249.17"/>
      <polygon class="cls-2" points="716.36 0 716.36 83.06 757.89 83.06 757.89 249.17 840.94 332.22 840.94 83.06 924 0 716.36 0"/>
      <polygon class="cls-2" points="363.37 124.58 363.37 83.06 571.01 83.06 654.07 0 363.37 0 280.31 83.06 280.31 332.22 363.37 249.17 363.37 207.64 404.9 207.64 487.96 124.58 363.37 124.58"/>
    </g>
  </g>
</svg>